<?xml version="1.0" standalone="no"?><!DOCTYPE svg PUBLIC "-//W3C//DTD SVG 1.1//EN" "http://www.w3.org/Graphics/SVG/1.1/DTD/svg11.dtd"><svg t="1604420558709" class="icon" viewBox="0 0 1024 1024" version="1.1" xmlns="http://www.w3.org/2000/svg" p-id="6761" width="128" height="128" xmlns:xlink="http://www.w3.org/1999/xlink"><defs><style type="text/css"></style></defs><path d="M512.1 512.1m-342.8 0a342.8 342.8 0 1 0 685.6 0 342.8 342.8 0 1 0-685.6 0Z" fill="#75AFCC" p-id="6762"></path><path d="M960.1 512.1c0 247.4-200.6 448-448 448s-448-200.6-448-448 200.6-448 448-448 448 200.6 448 448z" fill="#33B5E5" p-id="6763"></path><path d="M837.4 691.4l0.1-310.9c0-8.5-7-15.5-15.5-15.5h-9.7c-7.3 0-13.3-6-13.3-13.3v-26c0-7.5-5.2-13.8-12.6-15.2-100.6-19.2-192.1-18.9-261.7 30.2-12.4 8.8-13.5 8.7-25.8 0-69.7-49-161.2-49.4-261.8-30.2-7.3 1.4-12.6 7.7-12.6 15.2v26c0 7.3-5.9 13.3-13.3 13.3h-9.7c-8.5 0-15.5 7-15.5 15.5l0.1 310.9c0 8.5 7 15.5 15.5 15.5h262.8c4.9 0 8.8 4 8.8 8.8 0 5.2 3.4 9.5 8.9 9.5h59.3c4.9 0 8.9-4 8.9-8.9 0-5.2 3.4-9.5 8.9-9.5H822c8.5 0.1 15.4-6.9 15.4-15.4z" fill="#FDFEFF" p-id="6764"></path><path d="M490.1 676.7c-62-38.7-142.7-43.1-228.9-28.8-8.8 1.4-16.7-5.2-16.7-14.2l-0.1-293.7c0-7.6 5.4-14 12.9-15.3 89.8-15.2 172.5-9.2 232.7 36.3 7.7 5.8 11.8 14.1 11.8 23.8l0.1 285.2c0 6.2-6.6 9.9-11.8 6.7zM533.6 676.7c62-38.7 142.8-43.1 228.9-28.8 8.8 1.4 16.7-5.2 16.7-14.2l0.1-293.7c0-7.6-5.4-14-12.9-15.3-89.8-15.2-172.5-9.2-232.7 36.3-7.7 5.8-11.9 14.1-11.9 23.8l-0.1 285.2c0 6.2 6.7 9.9 11.9 6.7z" fill="#33B5E5" p-id="6765"></path><path d="M391.8 445.8l-5.6-3.8-3.6 11.4z" fill="#403833" p-id="6766"></path><path d="M405.6 434.3l-14.1-9.4-5.3 17.1 5.6 3.8z" fill="#DAC18E" p-id="6767"></path><path d="M472.2 334.2l7.3-10.6-14-9.4-7.4 10.5z" fill="#F1E4C4" p-id="6768"></path><path d="M396.5 432.3c-3.3-2.2-5-7.4-5-7.4l67.9-102 14.1 9.4-67.9 102s-5.9 0.2-9.1-2z" fill="#F05C42" p-id="6769"></path></svg>